<?xml version="1.0" standalone="no"?>
<!DOCTYPE svg PUBLIC "-//W3C//DTD SVG 20010904//EN"
 "http://www.w3.org/TR/2001/REC-SVG-20010904/DTD/svg10.dtd">
<svg version="1.0" xmlns="http://www.w3.org/2000/svg"
 width="700.000000pt" height="700.000000pt" viewBox="0 0 700.000000 700.000000"
 preserveAspectRatio="xMidYMid meet">
<metadata>
Created by potrace 1.11, written by Peter Selinger 2001-2013
</metadata>
<g transform="translate(0.000000,700.000000) scale(0.100000,-0.100000)"
fill="#000000" stroke="none">
<path d="M2383 6981 c-94 -32 -169 -98 -206 -181 -17 -39 -29 -77 -32 -100 -1
-8 -5 -28 -8 -45 -4 -16 -9 -43 -11 -60 -13 -83 -38 -220 -41 -225 -2 -4 -7
-36 -20 -134 -3 -15 -6 -35 -9 -45 -3 -9 -8 -36 -11 -61 -3 -25 -10 -61 -14
-80 -5 -19 -19 -97 -32 -172 -26 -152 -16 -138 -104 -153 -16 -3 -41 -7 -55
-10 -13 -2 -42 -7 -65 -10 -47 -7 -80 -13 -115 -20 -27 -6 -187 -33 -235 -41
-16 -2 -54 -9 -84 -15 -30 -6 -64 -12 -75 -14 -12 -1 -75 -12 -141 -24 -174
-32 -196 -35 -260 -46 -151 -25 -245 -54 -350 -108 -191 -99 -361 -287 -436
-481 -75 -193 -86 -349 -44 -586 3 -14 7 -38 10 -55 3 -16 10 -52 15 -80 5
-27 12 -66 15 -85 3 -19 11 -62 17 -95 6 -33 12 -69 14 -80 2 -11 12 -74 24
-140 12 -66 22 -129 24 -140 2 -11 11 -58 20 -105 26 -145 38 -213 51 -305 4
-22 8 -47 10 -55 3 -8 20 -105 40 -215 19 -110 38 -216 41 -235 4 -19 8 -48
10 -65 2 -16 6 -37 9 -45 2 -8 7 -33 10 -55 6 -38 13 -80 35 -198 5 -28 12
-65 15 -82 2 -16 9 -55 15 -85 5 -30 12 -71 15 -90 18 -106 47 -271 55 -310 5
-25 11 -58 14 -75 5 -34 103 -597 111 -635 3 -14 8 -41 11 -60 2 -19 7 -46 10
-60 2 -14 7 -38 10 -55 57 -315 61 -329 124 -455 101 -200 278 -360 493 -444
45 -18 101 -37 122 -41 22 -5 47 -10 55 -12 43 -11 254 -10 325 2 90 15 90 15
315 56 91 16 181 32 200 35 19 3 71 12 115 20 77 14 157 28 220 39 288 51 365
64 390 68 31 5 131 23 175 32 14 3 52 10 85 15 33 5 70 12 83 15 13 2 76 13
140 24 64 12 128 23 142 26 14 3 36 7 50 9 41 7 115 20 120 21 3 1 30 5 60 10
30 5 57 9 60 10 33 8 71 15 100 19 19 3 46 8 60 10 14 3 66 12 115 21 138 23
144 25 230 40 44 8 97 17 119 21 21 3 46 7 55 9 43 8 190 35 221 40 34 6 80
14 430 75 96 17 198 37 225 45 71 20 140 69 183 130 32 45 46 55 102 75 253
91 464 314 555 585 12 35 55 251 69 345 3 19 10 60 16 90 6 30 13 70 16 89 3
18 8 43 10 55 2 11 7 37 10 56 2 19 7 46 10 60 2 14 6 36 9 50 3 13 7 42 10
65 3 22 8 47 10 55 2 8 7 31 10 50 3 19 12 71 20 115 8 44 17 96 20 115 3 19
10 58 15 85 5 28 12 64 15 80 2 17 9 55 15 85 5 30 12 71 15 90 3 19 12 69 20
110 8 41 17 93 20 115 3 22 7 47 10 55 2 8 6 33 10 55 5 41 14 94 22 130 4 22
52 295 78 440 8 50 20 113 25 140 5 28 12 70 15 95 4 24 8 47 10 50 2 3 6 26
10 50 3 25 12 81 20 125 8 44 17 96 20 115 3 19 8 42 10 50 2 8 6 33 10 55 3
22 7 47 10 55 2 8 6 31 9 50 3 19 8 46 10 60 3 14 7 41 10 60 3 19 8 46 11 60
3 14 14 79 26 145 25 146 26 149 45 255 22 120 22 353 0 389 -3 4 -8 23 -11
42 -11 63 -73 199 -128 282 -125 187 -319 329 -527 386 -42 12 -139 32 -215
46 -77 14 -153 27 -170 30 -313 57 -533 96 -560 100 -11 1 -38 6 -60 10 -71
14 -79 15 -144 25 -35 6 -107 19 -160 30 -53 10 -121 21 -151 25 -30 4 -58 9
-61 10 -3 2 -59 13 -125 24 -65 12 -130 23 -144 26 -13 2 -42 7 -65 11 -22 3
-62 10 -90 15 -53 11 -67 13 -300 53 -82 15 -170 31 -195 36 -25 5 -137 25
-250 45 -113 20 -241 42 -285 50 -79 15 -133 24 -257 46 -35 6 -83 15 -108 20
-25 5 -61 11 -80 14 -45 7 -100 17 -125 22 -203 41 -313 48 -382 24z"/>
</g>
</svg>
